<mxfile host="app.diagrams.net" modified="2024-01-03T18:23:35.159Z" agent="Mozilla/5.0 (Windows NT 10.0; Win64; x64) AppleWebKit/537.36 (KHTML, like Gecko) Chrome/120.0.0.0 Safari/537.36 Edg/120.0.0.0" etag="OtkXBP9UC2nPQmhERxuk" version="22.1.16" type="device">
  <diagram id="C5RBs43oDa-KdzZeNtuy" name="Page-1">
    <mxGraphModel dx="2080" dy="1203" grid="1" gridSize="10" guides="1" tooltips="1" connect="1" arrows="1" fold="1" page="1" pageScale="1" pageWidth="827" pageHeight="1169" math="0" shadow="0">
      <root>
        <mxCell id="WIyWlLk6GJQsqaUBKTNV-0" />
        <mxCell id="WIyWlLk6GJQsqaUBKTNV-1" parent="WIyWlLk6GJQsqaUBKTNV-0" />
        <mxCell id="acOZOkzesNBLAvMVAfAf-70" value="" style="edgeStyle=orthogonalEdgeStyle;rounded=0;orthogonalLoop=1;jettySize=auto;html=1;" edge="1" parent="WIyWlLk6GJQsqaUBKTNV-1" source="acOZOkzesNBLAvMVAfAf-55" target="acOZOkzesNBLAvMVAfAf-69">
          <mxGeometry relative="1" as="geometry" />
        </mxCell>
        <mxCell id="acOZOkzesNBLAvMVAfAf-55" value="" style="shape=parallelogram;perimeter=parallelogramPerimeter;whiteSpace=wrap;html=1;fixedSize=1;" vertex="1" parent="WIyWlLk6GJQsqaUBKTNV-1">
          <mxGeometry x="313" y="629" width="164" height="56" as="geometry" />
        </mxCell>
        <mxCell id="acOZOkzesNBLAvMVAfAf-54" value="" style="shape=parallelogram;perimeter=parallelogramPerimeter;whiteSpace=wrap;html=1;fixedSize=1;" vertex="1" parent="WIyWlLk6GJQsqaUBKTNV-1">
          <mxGeometry x="312" y="521" width="164" height="56" as="geometry" />
        </mxCell>
        <mxCell id="acOZOkzesNBLAvMVAfAf-53" value="" style="shape=parallelogram;perimeter=parallelogramPerimeter;whiteSpace=wrap;html=1;fixedSize=1;" vertex="1" parent="WIyWlLk6GJQsqaUBKTNV-1">
          <mxGeometry x="313.5" y="413" width="164" height="56" as="geometry" />
        </mxCell>
        <mxCell id="acOZOkzesNBLAvMVAfAf-12" style="edgeStyle=orthogonalEdgeStyle;rounded=0;orthogonalLoop=1;jettySize=auto;html=1;exitX=0.5;exitY=1;exitDx=0;exitDy=0;entryX=0.5;entryY=0;entryDx=0;entryDy=0;" edge="1" parent="WIyWlLk6GJQsqaUBKTNV-1" source="WIyWlLk6GJQsqaUBKTNV-3" target="acOZOkzesNBLAvMVAfAf-0">
          <mxGeometry relative="1" as="geometry" />
        </mxCell>
        <mxCell id="WIyWlLk6GJQsqaUBKTNV-3" value="Start" style="rounded=1;whiteSpace=wrap;html=1;fontSize=12;glass=0;strokeWidth=1;shadow=0;" parent="WIyWlLk6GJQsqaUBKTNV-1" vertex="1">
          <mxGeometry x="42" y="200" width="120" height="40" as="geometry" />
        </mxCell>
        <mxCell id="WIyWlLk6GJQsqaUBKTNV-5" value="" style="edgeStyle=orthogonalEdgeStyle;rounded=0;html=1;jettySize=auto;orthogonalLoop=1;fontSize=11;endArrow=block;endFill=0;endSize=8;strokeWidth=1;shadow=0;labelBackgroundColor=none;entryX=0.5;entryY=0;entryDx=0;entryDy=0;" parent="WIyWlLk6GJQsqaUBKTNV-1" edge="1">
          <mxGeometry y="10" relative="1" as="geometry">
            <mxPoint as="offset" />
            <mxPoint x="260" y="230" as="sourcePoint" />
            <mxPoint x="517" y="274" as="targetPoint" />
            <Array as="points">
              <mxPoint x="517" y="230" />
            </Array>
          </mxGeometry>
        </mxCell>
        <mxCell id="acOZOkzesNBLAvMVAfAf-13" style="edgeStyle=orthogonalEdgeStyle;rounded=0;orthogonalLoop=1;jettySize=auto;html=1;exitX=0.5;exitY=1;exitDx=0;exitDy=0;entryX=0.5;entryY=0;entryDx=0;entryDy=0;" edge="1" parent="WIyWlLk6GJQsqaUBKTNV-1" source="acOZOkzesNBLAvMVAfAf-0" target="acOZOkzesNBLAvMVAfAf-2">
          <mxGeometry relative="1" as="geometry" />
        </mxCell>
        <mxCell id="acOZOkzesNBLAvMVAfAf-0" value="" style="rounded=0;whiteSpace=wrap;html=1;" vertex="1" parent="WIyWlLk6GJQsqaUBKTNV-1">
          <mxGeometry x="20" y="284" width="164" height="56" as="geometry" />
        </mxCell>
        <mxCell id="acOZOkzesNBLAvMVAfAf-1" value="LCD Initialized" style="text;html=1;strokeColor=none;fillColor=none;align=center;verticalAlign=middle;whiteSpace=wrap;rounded=0;" vertex="1" parent="WIyWlLk6GJQsqaUBKTNV-1">
          <mxGeometry x="52" y="297" width="100" height="30" as="geometry" />
        </mxCell>
        <mxCell id="acOZOkzesNBLAvMVAfAf-14" style="edgeStyle=orthogonalEdgeStyle;rounded=0;orthogonalLoop=1;jettySize=auto;html=1;exitX=0.5;exitY=1;exitDx=0;exitDy=0;entryX=0.5;entryY=0;entryDx=0;entryDy=0;" edge="1" parent="WIyWlLk6GJQsqaUBKTNV-1" source="acOZOkzesNBLAvMVAfAf-2" target="acOZOkzesNBLAvMVAfAf-4">
          <mxGeometry relative="1" as="geometry" />
        </mxCell>
        <mxCell id="acOZOkzesNBLAvMVAfAf-2" value="" style="rounded=0;whiteSpace=wrap;html=1;" vertex="1" parent="WIyWlLk6GJQsqaUBKTNV-1">
          <mxGeometry x="20" y="380" width="164" height="56" as="geometry" />
        </mxCell>
        <mxCell id="acOZOkzesNBLAvMVAfAf-3" value="Red LED Initialized (PB2)" style="text;html=1;strokeColor=none;fillColor=none;align=center;verticalAlign=middle;whiteSpace=wrap;rounded=0;" vertex="1" parent="WIyWlLk6GJQsqaUBKTNV-1">
          <mxGeometry x="37" y="393" width="130" height="30" as="geometry" />
        </mxCell>
        <mxCell id="acOZOkzesNBLAvMVAfAf-15" style="edgeStyle=orthogonalEdgeStyle;rounded=0;orthogonalLoop=1;jettySize=auto;html=1;exitX=0.5;exitY=1;exitDx=0;exitDy=0;entryX=0.5;entryY=0;entryDx=0;entryDy=0;" edge="1" parent="WIyWlLk6GJQsqaUBKTNV-1" source="acOZOkzesNBLAvMVAfAf-4" target="acOZOkzesNBLAvMVAfAf-6">
          <mxGeometry relative="1" as="geometry" />
        </mxCell>
        <mxCell id="acOZOkzesNBLAvMVAfAf-4" value="" style="rounded=0;whiteSpace=wrap;html=1;" vertex="1" parent="WIyWlLk6GJQsqaUBKTNV-1">
          <mxGeometry x="20" y="470" width="164" height="56" as="geometry" />
        </mxCell>
        <mxCell id="acOZOkzesNBLAvMVAfAf-5" value="Green LED Initialized (PB3)" style="text;html=1;strokeColor=none;fillColor=none;align=center;verticalAlign=middle;whiteSpace=wrap;rounded=0;" vertex="1" parent="WIyWlLk6GJQsqaUBKTNV-1">
          <mxGeometry x="37" y="483" width="130" height="30" as="geometry" />
        </mxCell>
        <mxCell id="acOZOkzesNBLAvMVAfAf-16" style="edgeStyle=orthogonalEdgeStyle;rounded=0;orthogonalLoop=1;jettySize=auto;html=1;exitX=0.5;exitY=1;exitDx=0;exitDy=0;entryX=0.5;entryY=0;entryDx=0;entryDy=0;" edge="1" parent="WIyWlLk6GJQsqaUBKTNV-1" source="acOZOkzesNBLAvMVAfAf-6" target="acOZOkzesNBLAvMVAfAf-8">
          <mxGeometry relative="1" as="geometry" />
        </mxCell>
        <mxCell id="acOZOkzesNBLAvMVAfAf-6" value="" style="rounded=0;whiteSpace=wrap;html=1;" vertex="1" parent="WIyWlLk6GJQsqaUBKTNV-1">
          <mxGeometry x="20" y="564" width="164" height="56" as="geometry" />
        </mxCell>
        <mxCell id="acOZOkzesNBLAvMVAfAf-7" value="LDR Initialized &lt;br&gt;(PB4)" style="text;html=1;strokeColor=none;fillColor=none;align=center;verticalAlign=middle;whiteSpace=wrap;rounded=0;" vertex="1" parent="WIyWlLk6GJQsqaUBKTNV-1">
          <mxGeometry x="37" y="577" width="130" height="30" as="geometry" />
        </mxCell>
        <mxCell id="acOZOkzesNBLAvMVAfAf-17" style="edgeStyle=orthogonalEdgeStyle;rounded=0;orthogonalLoop=1;jettySize=auto;html=1;exitX=0.5;exitY=1;exitDx=0;exitDy=0;entryX=0.5;entryY=0;entryDx=0;entryDy=0;" edge="1" parent="WIyWlLk6GJQsqaUBKTNV-1" source="acOZOkzesNBLAvMVAfAf-8" target="acOZOkzesNBLAvMVAfAf-11">
          <mxGeometry relative="1" as="geometry" />
        </mxCell>
        <mxCell id="acOZOkzesNBLAvMVAfAf-8" value="" style="rounded=0;whiteSpace=wrap;html=1;" vertex="1" parent="WIyWlLk6GJQsqaUBKTNV-1">
          <mxGeometry x="20" y="660" width="164" height="56" as="geometry" />
        </mxCell>
        <mxCell id="acOZOkzesNBLAvMVAfAf-9" value="Enable Pull-up Resistor" style="text;html=1;strokeColor=none;fillColor=none;align=center;verticalAlign=middle;whiteSpace=wrap;rounded=0;" vertex="1" parent="WIyWlLk6GJQsqaUBKTNV-1">
          <mxGeometry x="37" y="673" width="130" height="30" as="geometry" />
        </mxCell>
        <mxCell id="acOZOkzesNBLAvMVAfAf-11" value="1" style="ellipse;whiteSpace=wrap;html=1;aspect=fixed;" vertex="1" parent="WIyWlLk6GJQsqaUBKTNV-1">
          <mxGeometry x="77" y="760" width="50" height="50" as="geometry" />
        </mxCell>
        <mxCell id="acOZOkzesNBLAvMVAfAf-65" style="edgeStyle=orthogonalEdgeStyle;rounded=0;orthogonalLoop=1;jettySize=auto;html=1;exitX=0;exitY=0.5;exitDx=0;exitDy=0;entryX=0.5;entryY=0;entryDx=0;entryDy=0;" edge="1" parent="WIyWlLk6GJQsqaUBKTNV-1" source="acOZOkzesNBLAvMVAfAf-34" target="acOZOkzesNBLAvMVAfAf-53">
          <mxGeometry relative="1" as="geometry" />
        </mxCell>
        <mxCell id="acOZOkzesNBLAvMVAfAf-34" value="Lamp&lt;br&gt;plugged in?" style="rhombus;whiteSpace=wrap;html=1;shadow=0;fontFamily=Helvetica;fontSize=12;align=center;strokeWidth=1;spacing=6;spacingTop=-4;" vertex="1" parent="WIyWlLk6GJQsqaUBKTNV-1">
          <mxGeometry x="440" y="274" width="174" height="108.8" as="geometry" />
        </mxCell>
        <mxCell id="acOZOkzesNBLAvMVAfAf-40" value="If Sensor bit is set" style="text;html=1;strokeColor=none;fillColor=none;align=center;verticalAlign=middle;whiteSpace=wrap;rounded=0;" vertex="1" parent="WIyWlLk6GJQsqaUBKTNV-1">
          <mxGeometry x="640" y="290" width="100" height="30" as="geometry" />
        </mxCell>
        <mxCell id="acOZOkzesNBLAvMVAfAf-48" style="edgeStyle=orthogonalEdgeStyle;rounded=0;orthogonalLoop=1;jettySize=auto;html=1;exitX=0.5;exitY=1;exitDx=0;exitDy=0;entryX=0.5;entryY=0;entryDx=0;entryDy=0;" edge="1" parent="WIyWlLk6GJQsqaUBKTNV-1">
          <mxGeometry relative="1" as="geometry">
            <mxPoint x="395" y="469" as="sourcePoint" />
            <mxPoint x="395" y="521" as="targetPoint" />
          </mxGeometry>
        </mxCell>
        <mxCell id="acOZOkzesNBLAvMVAfAf-44" value="If Sensor bit is not&amp;nbsp; set" style="text;html=1;strokeColor=none;fillColor=none;align=center;verticalAlign=middle;whiteSpace=wrap;rounded=0;" vertex="1" parent="WIyWlLk6GJQsqaUBKTNV-1">
          <mxGeometry x="306" y="290" width="138" height="30" as="geometry" />
        </mxCell>
        <mxCell id="acOZOkzesNBLAvMVAfAf-45" value="Clear Green LED Bit (PB3)" style="text;html=1;strokeColor=none;fillColor=none;align=center;verticalAlign=middle;whiteSpace=wrap;rounded=0;" vertex="1" parent="WIyWlLk6GJQsqaUBKTNV-1">
          <mxGeometry x="334" y="426" width="123" height="30" as="geometry" />
        </mxCell>
        <mxCell id="acOZOkzesNBLAvMVAfAf-49" value="Set Red LED Bit (PB2)" style="text;html=1;strokeColor=none;fillColor=none;align=center;verticalAlign=middle;whiteSpace=wrap;rounded=0;" vertex="1" parent="WIyWlLk6GJQsqaUBKTNV-1">
          <mxGeometry x="333.5" y="534" width="123" height="30" as="geometry" />
        </mxCell>
        <mxCell id="acOZOkzesNBLAvMVAfAf-50" style="edgeStyle=orthogonalEdgeStyle;rounded=0;orthogonalLoop=1;jettySize=auto;html=1;exitX=0.5;exitY=1;exitDx=0;exitDy=0;entryX=0.5;entryY=0;entryDx=0;entryDy=0;" edge="1" parent="WIyWlLk6GJQsqaUBKTNV-1">
          <mxGeometry relative="1" as="geometry">
            <mxPoint x="395" y="577" as="sourcePoint" />
            <mxPoint x="395" y="629" as="targetPoint" />
          </mxGeometry>
        </mxCell>
        <mxCell id="acOZOkzesNBLAvMVAfAf-52" value="Print&amp;nbsp; Low Intensity on LCD" style="text;html=1;strokeColor=none;fillColor=none;align=center;verticalAlign=middle;whiteSpace=wrap;rounded=0;" vertex="1" parent="WIyWlLk6GJQsqaUBKTNV-1">
          <mxGeometry x="333.5" y="642" width="123" height="30" as="geometry" />
        </mxCell>
        <mxCell id="acOZOkzesNBLAvMVAfAf-56" value="" style="shape=parallelogram;perimeter=parallelogramPerimeter;whiteSpace=wrap;html=1;fixedSize=1;" vertex="1" parent="WIyWlLk6GJQsqaUBKTNV-1">
          <mxGeometry x="575.5" y="629" width="164" height="56" as="geometry" />
        </mxCell>
        <mxCell id="acOZOkzesNBLAvMVAfAf-57" value="" style="shape=parallelogram;perimeter=parallelogramPerimeter;whiteSpace=wrap;html=1;fixedSize=1;" vertex="1" parent="WIyWlLk6GJQsqaUBKTNV-1">
          <mxGeometry x="574.5" y="521" width="164" height="56" as="geometry" />
        </mxCell>
        <mxCell id="acOZOkzesNBLAvMVAfAf-58" value="" style="shape=parallelogram;perimeter=parallelogramPerimeter;whiteSpace=wrap;html=1;fixedSize=1;" vertex="1" parent="WIyWlLk6GJQsqaUBKTNV-1">
          <mxGeometry x="576" y="413" width="164" height="56" as="geometry" />
        </mxCell>
        <mxCell id="acOZOkzesNBLAvMVAfAf-59" style="edgeStyle=orthogonalEdgeStyle;rounded=0;orthogonalLoop=1;jettySize=auto;html=1;exitX=0.5;exitY=1;exitDx=0;exitDy=0;entryX=0.5;entryY=0;entryDx=0;entryDy=0;" edge="1" parent="WIyWlLk6GJQsqaUBKTNV-1">
          <mxGeometry relative="1" as="geometry">
            <mxPoint x="657.5" y="469" as="sourcePoint" />
            <mxPoint x="657.5" y="521" as="targetPoint" />
          </mxGeometry>
        </mxCell>
        <mxCell id="acOZOkzesNBLAvMVAfAf-60" value="Clear Red LED Bit (PB2)" style="text;html=1;strokeColor=none;fillColor=none;align=center;verticalAlign=middle;whiteSpace=wrap;rounded=0;" vertex="1" parent="WIyWlLk6GJQsqaUBKTNV-1">
          <mxGeometry x="596.5" y="426" width="123" height="30" as="geometry" />
        </mxCell>
        <mxCell id="acOZOkzesNBLAvMVAfAf-61" value="Set Green LED Bit (PB3)" style="text;html=1;strokeColor=none;fillColor=none;align=center;verticalAlign=middle;whiteSpace=wrap;rounded=0;" vertex="1" parent="WIyWlLk6GJQsqaUBKTNV-1">
          <mxGeometry x="596" y="534" width="123" height="30" as="geometry" />
        </mxCell>
        <mxCell id="acOZOkzesNBLAvMVAfAf-62" style="edgeStyle=orthogonalEdgeStyle;rounded=0;orthogonalLoop=1;jettySize=auto;html=1;exitX=0.5;exitY=1;exitDx=0;exitDy=0;entryX=0.5;entryY=0;entryDx=0;entryDy=0;" edge="1" parent="WIyWlLk6GJQsqaUBKTNV-1">
          <mxGeometry relative="1" as="geometry">
            <mxPoint x="657.5" y="577" as="sourcePoint" />
            <mxPoint x="657.5" y="629" as="targetPoint" />
          </mxGeometry>
        </mxCell>
        <mxCell id="acOZOkzesNBLAvMVAfAf-63" value="Print&amp;nbsp; High Intensity on LCD" style="text;html=1;strokeColor=none;fillColor=none;align=center;verticalAlign=middle;whiteSpace=wrap;rounded=0;" vertex="1" parent="WIyWlLk6GJQsqaUBKTNV-1">
          <mxGeometry x="596" y="642" width="123" height="30" as="geometry" />
        </mxCell>
        <mxCell id="acOZOkzesNBLAvMVAfAf-66" style="edgeStyle=orthogonalEdgeStyle;rounded=0;orthogonalLoop=1;jettySize=auto;html=1;exitX=0;exitY=0.5;exitDx=0;exitDy=0;entryX=0.5;entryY=0;entryDx=0;entryDy=0;" edge="1" parent="WIyWlLk6GJQsqaUBKTNV-1">
          <mxGeometry relative="1" as="geometry">
            <mxPoint x="614" y="327.99846153846147" as="sourcePoint" />
            <mxPoint x="658" y="412.9984615384614" as="targetPoint" />
          </mxGeometry>
        </mxCell>
        <mxCell id="acOZOkzesNBLAvMVAfAf-76" style="edgeStyle=orthogonalEdgeStyle;rounded=0;orthogonalLoop=1;jettySize=auto;html=1;exitX=0.5;exitY=1;exitDx=0;exitDy=0;endArrow=none;endFill=0;" edge="1" parent="WIyWlLk6GJQsqaUBKTNV-1" source="acOZOkzesNBLAvMVAfAf-69">
          <mxGeometry relative="1" as="geometry">
            <mxPoint x="260" y="229.9999999999999" as="targetPoint" />
          </mxGeometry>
        </mxCell>
        <mxCell id="acOZOkzesNBLAvMVAfAf-69" value="Delay 500 ms" style="whiteSpace=wrap;html=1;" vertex="1" parent="WIyWlLk6GJQsqaUBKTNV-1">
          <mxGeometry x="313.5" y="740" width="164" height="56" as="geometry" />
        </mxCell>
        <mxCell id="acOZOkzesNBLAvMVAfAf-71" value="" style="edgeStyle=orthogonalEdgeStyle;rounded=0;orthogonalLoop=1;jettySize=auto;html=1;" edge="1" parent="WIyWlLk6GJQsqaUBKTNV-1" target="acOZOkzesNBLAvMVAfAf-72">
          <mxGeometry relative="1" as="geometry">
            <mxPoint x="661.5" y="685" as="sourcePoint" />
          </mxGeometry>
        </mxCell>
        <mxCell id="acOZOkzesNBLAvMVAfAf-72" value="Delay 500 ms" style="whiteSpace=wrap;html=1;" vertex="1" parent="WIyWlLk6GJQsqaUBKTNV-1">
          <mxGeometry x="580" y="740" width="164" height="56" as="geometry" />
        </mxCell>
        <mxCell id="acOZOkzesNBLAvMVAfAf-78" value="" style="edgeStyle=orthogonalEdgeStyle;rounded=0;html=1;jettySize=auto;orthogonalLoop=1;fontSize=11;endArrow=block;endFill=0;endSize=8;strokeWidth=1;shadow=0;labelBackgroundColor=none;entryX=0.5;entryY=0;entryDx=0;entryDy=0;" edge="1" parent="WIyWlLk6GJQsqaUBKTNV-1">
          <mxGeometry y="10" relative="1" as="geometry">
            <mxPoint as="offset" />
            <mxPoint x="800" y="230" as="sourcePoint" />
            <mxPoint x="540.065454545454" y="274" as="targetPoint" />
            <Array as="points">
              <mxPoint x="540.065454545454" y="230" />
            </Array>
          </mxGeometry>
        </mxCell>
        <mxCell id="acOZOkzesNBLAvMVAfAf-79" style="edgeStyle=orthogonalEdgeStyle;rounded=0;orthogonalLoop=1;jettySize=auto;html=1;endArrow=none;endFill=0;exitX=0.5;exitY=1;exitDx=0;exitDy=0;" edge="1" parent="WIyWlLk6GJQsqaUBKTNV-1" source="acOZOkzesNBLAvMVAfAf-72">
          <mxGeometry relative="1" as="geometry">
            <mxPoint x="800" y="229.45999999999987" as="targetPoint" />
            <mxPoint x="800" y="850" as="sourcePoint" />
            <Array as="points">
              <mxPoint x="662" y="820" />
              <mxPoint x="800" y="820" />
            </Array>
          </mxGeometry>
        </mxCell>
        <mxCell id="acOZOkzesNBLAvMVAfAf-81" value="" style="edgeStyle=orthogonalEdgeStyle;rounded=0;orthogonalLoop=1;jettySize=auto;html=1;" edge="1" parent="WIyWlLk6GJQsqaUBKTNV-1" source="acOZOkzesNBLAvMVAfAf-80" target="acOZOkzesNBLAvMVAfAf-34">
          <mxGeometry relative="1" as="geometry" />
        </mxCell>
        <mxCell id="acOZOkzesNBLAvMVAfAf-80" value="1" style="ellipse;whiteSpace=wrap;html=1;aspect=fixed;" vertex="1" parent="WIyWlLk6GJQsqaUBKTNV-1">
          <mxGeometry x="502" y="150" width="50" height="50" as="geometry" />
        </mxCell>
        <mxCell id="acOZOkzesNBLAvMVAfAf-82" value="Jump to Loop" style="text;html=1;strokeColor=none;fillColor=none;align=center;verticalAlign=middle;whiteSpace=wrap;rounded=0;" vertex="1" parent="WIyWlLk6GJQsqaUBKTNV-1">
          <mxGeometry x="280" y="820" width="110" height="30" as="geometry" />
        </mxCell>
        <mxCell id="acOZOkzesNBLAvMVAfAf-83" value="Jump to Loop" style="text;html=1;strokeColor=none;fillColor=none;align=center;verticalAlign=middle;whiteSpace=wrap;rounded=0;" vertex="1" parent="WIyWlLk6GJQsqaUBKTNV-1">
          <mxGeometry x="680" y="820" width="110" height="30" as="geometry" />
        </mxCell>
      </root>
    </mxGraphModel>
  </diagram>
</mxfile>
